<svg xmlns="http://www.w3.org/2000/svg" width="223.907" height="51.78" viewBox="0 0 223.907 51.78">
  <metadata><?xpacket begin="﻿" id="W5M0MpCehiHzreSzNTczkc9d"?>
<x:xmpmeta xmlns:x="adobe:ns:meta/" x:xmptk="Adobe XMP Core 5.6-c138 79.159824, 2016/09/14-01:09:01        ">
   <rdf:RDF xmlns:rdf="http://www.w3.org/1999/02/22-rdf-syntax-ns#">
      <rdf:Description rdf:about=""/>
   </rdf:RDF>
</x:xmpmeta>
                                                                                                    
                                                                                                    
                                                                                                    
                                                                                                    
                                                                                                    
                                                                                                    
                                                                                                    
                                                                                                    
                                                                                                    
                                                                                                    
                                                                                                    
                                                                                                    
                                                                                                    
                                                                                                    
                                                                                                    
                                                                                                    
                                                                                                    
                                                                                                    
                                                                                                    
                                                                                                    
                           
<?xpacket end="w"?></metadata>
<defs>
    <style>
      .cls-1 {
        fill: #282828;
        fill-rule: evenodd;
      }
    </style>
  </defs>
  <path id="eightyfive" class="cls-1" d="M121.555,5851.46a13.1,13.1,0,0,0,9.68,3.77q8.065,0,11.024-4.04l-4.3-4.3a11.168,11.168,0,0,1-6.722,2.15,6.081,6.081,0,0,1-3.765-1.21,4.759,4.759,0,0,1-1.882-3.36h18.553v-2.69a13.67,13.67,0,0,0-3.5-9.68,12.219,12.219,0,0,0-9.411-3.76A13.69,13.69,0,0,0,121.555,5851.46Zm15.057-12.37H125.857a3.973,3.973,0,0,1,1.613-3.36,6.461,6.461,0,0,1,7.529,0,3.97,3.97,0,0,1,1.613,3.36h0Zm18.22,16.14v-26.92H147.3v26.92h7.529Zm-6.722-36.05a3.921,3.921,0,0,1,2.9-1.09,4.068,4.068,0,0,1,3.012,1.09,3.707,3.707,0,0,1,1.075,2.7,3.636,3.636,0,0,1-1.075,2.69,4.591,4.591,0,0,1-5.916,0,3.633,3.633,0,0,1-1.076-2.69A3.7,3.7,0,0,1,148.11,5819.18Zm28.384,9.16v2.44q-1.882-2.175-6.454-2.44-6.184,0-9.545,3.76a13.993,13.993,0,0,0-3.361,9.68q0,6.18,3.092,9.82t9.277,3.63a10.857,10.857,0,0,0,6.991-2.42v1.34a7.236,7.236,0,0,1-1.52,4.44q-1.519,2.01-5.821,2.01a13.33,13.33,0,0,1-7.179-2.42l-3.5,4.04q4.3,4.29,12.1,4.46l1.613-.16a11.509,11.509,0,0,0,8.47-4.01,13.689,13.689,0,0,0,3.361-9.44v-23.93Zm-5.647,20.7q-6.992-.27-7.26-7.8,0.537-6.45,7.26-6.69c3.406,0.52,5.288,2.28,5.647,5.3v4.35q-0.539,4.035-5.647,4.84h0Zm27.335-14.33a5.42,5.42,0,0,1,4.06,1.56,5.978,5.978,0,0,1,1.345,4.17v14.79h7.528v-16.68a10.541,10.541,0,0,0-2.688-7.12q-2.69-3.09-7.8-3.09a9.343,9.343,0,0,0-6.453,2.42v-15.87h-7.529v40.34h7.529v-18.18a5.435,5.435,0,0,1,4.006-2.34h0Zm31.879,19.25-1.586-5.4a13.5,13.5,0,0,1-2.017.35,3.176,3.176,0,0,1-2.326-.88,4.109,4.109,0,0,1-.9-3.02v-10.57h4.034v-6.08h-4.034v-8.09l-7.555.81v7.28h-4.034v6.08h4.034v11.64a8.678,8.678,0,0,0,2.689,6.59,10.121,10.121,0,0,0,7.26,2.56,7.957,7.957,0,0,0,4.436-1.27h0Zm14.348-5.11a5.418,5.418,0,0,1-4.06-1.56,5.946,5.946,0,0,1-1.345-4.16v-14.79h-7.529v16.67a10.523,10.523,0,0,0,2.689,7.12q2.69,3.1,7.8,3.1a9.825,9.825,0,0,0,6.588-2.45v1.37a7.338,7.338,0,0,1-1.519,4.97q-1.519,1.755-5.015,1.75a12.253,12.253,0,0,1-6.1-2.69l-3.5,4.04a15.271,15.271,0,0,0,10.217,4.46l1.614-.16a11.691,11.691,0,0,0,8.335-4.01,13.379,13.379,0,0,0,3.5-9.44v-24.73H248.55v17.58q-1.775,2.775-4.141,2.93h0Zm23.866,6.38v-21.51h4.034v-6.08h-4.034v-2.53a4.109,4.109,0,0,1,.9-3.02,3.174,3.174,0,0,1,2.326-.88,3.5,3.5,0,0,1,2.689.84l4.006-4.47q-2.69-2.685-7.529-2.69a10.081,10.081,0,0,0-7.26,2.56,8.681,8.681,0,0,0-2.688,6.59v3.6h-4.034v6.08h4.034v21.51h7.555Zm16.714,0v-26.92H277.46v26.92h7.529Zm-6.722-36.05a3.921,3.921,0,0,1,2.9-1.09,4.064,4.064,0,0,1,3.011,1.09,3.7,3.7,0,0,1,1.076,2.7,3.633,3.633,0,0,1-1.076,2.69,4.589,4.589,0,0,1-5.915,0,3.633,3.633,0,0,1-1.076-2.69A3.7,3.7,0,0,1,278.267,5819.18Zm15.934,9.16,6.319,16.8,6.453-16.8h7.637l-10.783,26.89h-6.453l-10.809-26.89H294.2Zm24.888,23.12a13.106,13.106,0,0,0,9.68,3.77q8.067,0,11.025-4.04l-4.3-4.3a11.166,11.166,0,0,1-6.722,2.15,6.078,6.078,0,0,1-3.764-1.21,4.756,4.756,0,0,1-1.882-3.36h18.553v-2.69a13.671,13.671,0,0,0-3.5-9.68,12.216,12.216,0,0,0-9.411-3.76A13.691,13.691,0,0,0,319.089,5851.46Zm15.058-12.37H323.392a3.97,3.97,0,0,1,1.613-3.36,6.461,6.461,0,0,1,7.529,0,3.973,3.973,0,0,1,1.613,3.36h0Z" transform="translate(-117.781 -5814.91)"/>
</svg>
